<svg xmlns="http://www.w3.org/2000/svg" viewBox="7525.808 3715.413 192.617 192.617">
  <path id="_1sti_logo" data-name="1sti_logo" d="M96.309,0a96.309,96.309,0,1,0,96.309,96.309A96.309,96.309,0,0,0,96.309,0ZM51.719,59.452V136.5a2.4,2.4,0,0,1-.835,1.936,3.092,3.092,0,0,1-1.936.835h-5.5a2.834,2.834,0,0,1-2.768-2.768V64.95h-9.1c-1.936,0-2.768-.835-2.768-2.768v-5.5c0-1.936.835-2.768,2.768-2.768h14.6a5,5,0,0,1,3.872,1.667A4.5,4.5,0,0,1,51.719,59.452Zm53.122,59.721a18.632,18.632,0,0,1-1.667,7.7A21.735,21.735,0,0,1,92.437,137.6a18.785,18.785,0,0,1-15.395,0,21.735,21.735,0,0,1-10.729-10.729,18.633,18.633,0,0,1-1.667-7.7v-5.808c0-1.936.835-2.768,2.768-2.768h5.5c1.936,0,2.768.835,2.768,2.768v5.764a8.779,8.779,0,0,0,2.466,6.333,6.492,6.492,0,0,0,5.5,2.768,8.779,8.779,0,0,0,6.333-2.466,9.106,9.106,0,0,0,2.461-6.328v-2.2c-.266-.266-.266-.569-.569-.835L67.946,84.744a40.213,40.213,0,0,1-2.466-3.3,17,17,0,0,1-1.1-2.2,5.566,5.566,0,0,1-.569-2.2v-3.3a18.632,18.632,0,0,1,1.667-7.7A21.735,21.735,0,0,1,76.224,55.319a18.785,18.785,0,0,1,15.395,0,21.735,21.735,0,0,1,10.717,10.742,18.633,18.633,0,0,1,1.667,7.7v5.764c0,1.936-.835,2.768-2.768,2.768h-5.5c-1.936,0-2.768-.835-1.936-3.034V73.483a8.779,8.779,0,0,0-2.466-6.333,9.106,9.106,0,0,0-6.333-2.466,8.779,8.779,0,0,0-6.333,2.466,9.106,9.106,0,0,0-2.449,6.333v2.2c.266.266.266.569.569.835l23.915,31.649a40.207,40.207,0,0,1,2.466,3.3,7.971,7.971,0,0,1,1.1,2.2,5.566,5.566,0,0,1,.569,2.2Zm36.893-56.984c0,1.936-.835,2.768-2.768,2.768h-7.7V136.5a2.834,2.834,0,0,1-2.776,2.768H123a2.834,2.834,0,0,1-2.768-2.768V64.95h-7.7c-1.936,0-2.768-.835-2.768-2.768v-5.5c0-1.936.835-2.768,2.768-2.768h26.429c1.936,0,2.768.835,2.768,2.768v5.5Zm20.893,74.317c0,1.936-.835,2.768-2.768,2.768h-5.5c-1.936,0-2.768-.835-2.768-2.768V75.682c0-1.936.835-2.768,2.768-2.768h5.5a2.834,2.834,0,0,1,2.768,2.768Zm-5.5-70.722a6.333,6.333,0,1,1,6.333-6.333A6.333,6.333,0,0,1,157.128,65.785Z" transform="translate(7525.808 3715.413)"/>
</svg>
