<svg xmlns="http://www.w3.org/2000/svg" viewBox="13137.891 1779.28 60.258 60.26">
  <path id="email" d="M494.352,702.543a10.657,10.657,0,0,0-6.968-9.9,9.534,9.534,0,0,0-3.194-.557c-13.315,0-26.652-.021-39.969.021a10.5,10.5,0,0,0-9.992,8.513c-.021.108.021.279-.129.322v42.541a8.966,8.966,0,0,1,.43,1.479,10.661,10.661,0,0,0,4.525,5.833,10.3,10.3,0,0,0,3.495,1.395c.108.021.279-.021.322.15h42.541c.514-.235,1.094-.258,1.63-.451a10.492,10.492,0,0,0,5.747-4.481,10.362,10.362,0,0,0,1.566-5.747Q494.288,722.094,494.352,702.543Zm-9.971,3.946c-.622.53-1.094.965-1.566,1.372q-8.838,7.59-17.711,15.182c-.279.235-.472.429-.857.087Q454.823,715,445.356,706.9a5.7,5.7,0,0,1-.43-.406ZM442.74,735.436c-.064.064-.108.177-.3.129V708.629c2.252,1.93,4.309,3.687,6.363,5.446,2.252,1.93,4.5,3.861,6.754,5.768.279.235.493.408.129.815q-6.491,7.366-12.944,14.775Zm41.77,2.595c-.087.258-.385.177-.58.214a6.331,6.331,0,0,1-.9.042H446.279c-.493,0-1.237.129-1.414-.214-.193-.406.472-.772.794-1.137,4.065-4.7,8.191-9.368,12.265-14.067.385-.45.6-.557,1.094-.108,1.437,1.308,2.917,2.529,4.4,3.774a1.688,1.688,0,0,0,2.487,0c1.522-1.287,3.023-2.552,4.5-3.889.406-.364.58-.258.884.085l12.93,14.795c.1.177.336.306.293.5Zm2.316-2.3c-.836-.944-1.566-1.78-2.3-2.616-3.624-4.138-7.226-8.276-10.871-12.394-.3-.343-.406-.514.021-.884,4.2-3.581,8.384-7.184,12.587-10.765.129-.108.279-.214.557-.429Z" transform="translate(12703.791 1087.198)"/>
</svg>
