<svg xmlns="http://www.w3.org/2000/svg" viewBox="13138.998 1892.504 60.917 61.243">
  <path id="Exclusion_2" data-name="Exclusion 2" d="M50.458,61.243H19.706v-.326H8.866c-.033-.136-.129-.139-.23-.143a.755.755,0,0,1-.1-.008,9.385,9.385,0,0,1-3.532-1.408,10.806,10.806,0,0,1-4.575-5.9A5.907,5.907,0,0,0,0,51.965V8.955c.13-.046.128-.14.126-.23a.432.432,0,0,1,0-.095,9.862,9.862,0,0,1,1.408-3.6,10.1,10.1,0,0,1,8.692-5C16.139.008,22.488,0,30.816,0L40.6,0h.136L50.64,0a9.516,9.516,0,0,1,3.228.563,10.773,10.773,0,0,1,7.046,10.008c-.053,10.9-.032,21.988-.012,32.708q.006,3.418.012,6.832a10.446,10.446,0,0,1-1.583,5.81,10.726,10.726,0,0,1-5.81,4.531,14.259,14.259,0,0,0-1.648.455H50.458v.331ZM30.824,4.876A25.466,25.466,0,1,0,56.066,30.641a25.8,25.8,0,0,0-7.54-18.406A24.864,24.864,0,0,0,30.824,4.876ZM40.959,42.318a1.862,1.862,0,0,1-.922-.254A25,25,0,0,0,33.969,39.5a28.433,28.433,0,0,0-7.333-.941,34.769,34.769,0,0,0-5.811.511c-.87.134-1.8.306-2.922.542a2.226,2.226,0,0,1-.445.046,1.609,1.609,0,0,1-1.651-1.244,1.634,1.634,0,0,1,1.4-1.872,43.243,43.243,0,0,1,5.6-.937c1.284-.127,2.553-.192,3.773-.192a30.745,30.745,0,0,1,8.979,1.279,26.6,26.6,0,0,1,5.955,2.6,1.76,1.76,0,0,1,.955,1.629A1.442,1.442,0,0,1,40.959,42.318Zm2.751-6.7a2.3,2.3,0,0,1-1.182-.372,26.539,26.539,0,0,0-6.667-2.829,36.413,36.413,0,0,0-9.569-1.327,33.4,33.4,0,0,0-8.762,1.177,3.579,3.579,0,0,1-.894.126,1.776,1.776,0,0,1-1.822-1.456c-.317-1.155.341-2.079,1.761-2.471a35.429,35.429,0,0,1,9.572-1.331h.2a35.954,35.954,0,0,1,17.864,4.513,2.324,2.324,0,0,1,1.347,1.441,1.875,1.875,0,0,1-.673,2.1A1.938,1.938,0,0,1,43.71,35.62Zm2.931-7.871a2.252,2.252,0,0,1-1.081-.366,33.9,33.9,0,0,0-13.369-3.969,49.084,49.084,0,0,0-5.373-.3,42.565,42.565,0,0,0-7.734.7c-.9.159-1.752.381-2.653.615l-.156.041a3.429,3.429,0,0,1-.838.109,2.406,2.406,0,0,1-2.129-3.478,2.553,2.553,0,0,1,1.638-1.182,43.682,43.682,0,0,1,11.7-1.548c1.155,0,2.345.042,3.537.124A47.409,47.409,0,0,1,42.938,20.98a27.074,27.074,0,0,1,5.132,2.4,2.371,2.371,0,0,1,1.066,2.752A2.321,2.321,0,0,1,46.8,27.74,1.215,1.215,0,0,1,46.641,27.75Z" transform="translate(13138.999 1892.504)"/>
</svg>
