<svg xmlns="http://www.w3.org/2000/svg" viewBox="12841.484 1904.213 60.256 60.254">
  <defs>
    <style>
      .cls-1 {
        fill: #090909;
      }
    </style>
  </defs>
  <g id="instagram" transform="translate(12841.484 1904.213)">
    <path id="Path_135" data-name="Path 135" class="cls-1" d="M111.948,822.3a7.848,7.848,0,1,0,7.848,7.848A7.848,7.848,0,0,0,111.948,822.3Z" transform="translate(-81.802 -799.965)"/>
    <path id="Path_136" data-name="Path 136" class="cls-1" d="M88.937,776.738a8.184,8.184,0,0,0-6.669-7.484,31.741,31.741,0,0,0-6.363-.472c-3.967-.042-7.954-.042-11.923,0a44.9,44.9,0,0,0-5.361.279A8.729,8.729,0,0,0,53,771.806a9.633,9.633,0,0,0-2.187,5.875c-.258,3.323-.193,6.648-.214,9.95v1.237c.042,3.516-.064,7.012.322,10.528a8.161,8.161,0,0,0,6.625,7.462,29.259,29.259,0,0,0,6.411.472c3.966.064,7.954.042,11.922,0a34.684,34.684,0,0,0,5.96-.385,7.954,7.954,0,0,0,6.8-6.2,24.9,24.9,0,0,0,.53-5.639c.064-3.259.064-6.5.064-9.755A82.9,82.9,0,0,0,88.937,776.738ZM69.831,800.174a12.1,12.1,0,1,1,12.2-11.986A12.1,12.1,0,0,1,69.831,800.174Zm12.651-21.828a2.911,2.911,0,0,1-2.851-2.874,2.84,2.84,0,1,1,2.849,2.874Z" transform="translate(-39.771 -757.897)"/>
    <path id="Path_137" data-name="Path 137" class="cls-1" d="M60.351,728.543a10.658,10.658,0,0,0-6.968-9.9,9.546,9.546,0,0,0-3.194-.556c-13.315,0-26.652-.021-39.969.021a10,10,0,0,0-8.6,4.949,10.036,10.036,0,0,0-1.393,3.56c-.021.108.021.279-.129.322V769.48a8.957,8.957,0,0,1,.43,1.479,10.661,10.661,0,0,0,4.525,5.833,10.307,10.307,0,0,0,3.495,1.393c.108.021.279-.021.322.15H51.411c.514-.235,1.094-.258,1.63-.45a10.494,10.494,0,0,0,5.746-4.481,10.358,10.358,0,0,0,1.566-5.746Q60.288,748.094,60.351,728.543Zm-6.669,29.634a15.634,15.634,0,0,1-2.036,7.461,12.138,12.138,0,0,1-8.255,5.639,33.834,33.834,0,0,1-6.583.514c-4.674.022-9.328.022-14-.021a22.583,22.583,0,0,1-7.376-.944,12.083,12.083,0,0,1-8.212-9.435,32.13,32.13,0,0,1-.514-6.561c-.021-4.675-.021-9.328.021-14a22.581,22.581,0,0,1,.944-7.376,12.121,12.121,0,0,1,9.434-8.214,31.613,31.613,0,0,1,6.519-.514c4.674-.021,9.368-.042,14.045.021a22.583,22.583,0,0,1,7.376.944,12.12,12.12,0,0,1,8.212,9.435,33.158,33.158,0,0,1,.514,6.519c.042,2.209,0,4.4,0,6.6.041,3.321.085,6.623-.087,9.927Z" transform="translate(-0.101 -718.082)"/>
  </g>
</svg>
